<svg width="32" height="32" viewBox="0 0 32 32" fill="none" xmlns="http://www.w3.org/2000/svg">
<path d="M0 16C0 7.16344 7.16344 0 16 0C24.8366 0 32 7.16344 32 16C32 24.8366 24.8366 32 16 32C7.16344 32 0 24.8366 0 16Z" fill="#DF2935"/>
<path d="M10.18 22.66C9.71333 22.66 9.38 22.5 9.18 22.18C8.98 21.86 8.98667 21.4733 9.2 21.02L14.48 9.32C14.6533 8.93333 14.86 8.66 15.1 8.5C15.3533 8.32667 15.64 8.24 15.96 8.24C16.2667 8.24 16.54 8.32667 16.78 8.5C17.0333 8.66 17.2467 8.93333 17.42 9.32L22.72 21.02C22.9333 21.4867 22.9467 21.88 22.76 22.2C22.5733 22.5067 22.2533 22.66 21.8 22.66C21.4267 22.66 21.1333 22.5733 20.92 22.4C20.72 22.2133 20.54 21.9333 20.38 21.56L19.38 19.24H12.5L11.52 21.56C11.3467 21.9467 11.1667 22.2267 10.98 22.4C10.7933 22.5733 10.5267 22.66 10.18 22.66ZM15.92 11.18L13.38 17.2H18.5L15.96 11.18H15.92Z" fill="white"/>
</svg>
