<svg width="30" height="31" viewBox="0 0 30 31" fill="none" xmlns="http://www.w3.org/2000/svg">
<path d="M15 3.7998C8.373 3.7998 3 9.1728 3 15.7998C3 21.4228 6.872 26.1278 12.092 27.4298C12.036 27.2678 12 27.0798 12 26.8468V24.7958C11.513 24.7958 10.697 24.7958 10.492 24.7958C9.671 24.7958 8.941 24.4428 8.587 23.7868C8.194 23.0578 8.126 21.9428 7.152 21.2608C6.863 21.0338 7.083 20.7748 7.416 20.8098C8.031 20.9838 8.541 21.4058 9.021 22.0318C9.499 22.6588 9.724 22.8008 10.617 22.8008C11.05 22.8008 11.698 22.7758 12.308 22.6798C12.636 21.8468 13.203 21.0798 13.896 20.7178C9.9 20.3068 7.993 18.3188 7.993 15.6198C7.993 14.4578 8.488 13.3338 9.329 12.3868C9.053 11.4468 8.706 9.5298 9.435 8.7998C11.233 8.7998 12.32 9.9658 12.581 10.2808C13.477 9.9738 14.461 9.7998 15.495 9.7998C16.531 9.7998 17.519 9.9738 18.417 10.2828C18.675 9.9698 19.763 8.7998 21.565 8.7998C22.297 9.5308 21.946 11.4558 21.667 12.3938C22.503 13.3388 22.995 14.4598 22.995 15.6198C22.995 18.3168 21.091 20.3038 17.101 20.7168C18.199 21.2898 19 22.8998 19 24.1128V26.8468C19 26.9508 18.977 27.0258 18.965 27.1148C23.641 25.4758 27 21.0358 27 15.7998C27 9.1728 21.627 3.7998 15 3.7998Z" fill="#1C1917"/>
</svg>
