<svg width="1080" height="1080" viewBox="0 0 1080 1080" fill="none"
    xmlns="http://www.w3.org/2000/svg">
    <rect width="1080" height="1080" rx="90" fill="black" />
    <path
        d="M176.025 445.649C176.025 445.649 181.65 571.049 150.6 609.149L112.575 654.149C121.528 654.922 130.544 653.813 139.043 650.894C147.542 647.975 155.337 643.311 161.925 637.2C173.85 625.8 168.825 672.374 184.425 669.674C194.55 667.874 205.575 661.199 204.15 465.299L176.025 445.649Z"
        fill="#F47F21" />
    <path
        d="M573.375 193.651C535.062 193.713 497.191 201.839 462.225 217.5L400.501 255L254.4 345L183.525 388.425L164.1 400.35C161.754 403.605 160.084 407.298 159.19 411.209C158.296 415.121 158.195 419.172 158.895 423.123C159.594 427.074 161.079 430.845 163.261 434.212C165.444 437.579 168.279 440.474 171.6 442.726H172.125L173.25 443.4L254.4 493.201L305.025 524.325L528.825 661.65L538.125 667.35C541.52 668.676 545.131 669.363 548.775 669.375C551.513 669.354 554.236 668.976 556.875 668.25L570.75 660L846.6 490.725C847.2 483.225 847.5 475.725 847.5 468.225C847.55 432.192 840.496 396.502 826.743 363.196C812.99 329.89 792.807 299.621 767.348 274.121C741.889 248.62 711.654 228.388 678.371 214.58C645.088 200.772 609.409 193.66 573.375 193.651ZM690 433.651L570.676 506.851L564.675 510.526C563.537 510.893 562.346 511.071 561.15 511.051C559.581 511.057 558.026 510.751 556.576 510.151L552.525 507.751L455.775 448.276L433.801 435L398.7 413.475H398.25C396.808 412.5 395.578 411.245 394.632 409.784C393.685 408.323 393.042 406.686 392.741 404.972C392.441 403.257 392.488 401.5 392.88 399.804C393.273 398.108 394.002 396.508 395.025 395.1L403.425 390L434.025 371.175L497.25 332.401L523.95 315.975C542.008 307.987 561.775 304.632 581.457 306.214C601.14 307.796 620.117 314.266 636.667 325.036C653.217 335.806 666.817 350.537 676.235 367.892C685.653 385.248 690.591 404.68 690.6 424.426C690.375 427.051 690 430.35 690 433.575V433.651Z"
        fill="#F47F21" />
    <path
        d="M847.5 532.575V704.625L723.074 780.975L690 801.3L549.9 887.25L409.8 801.3L375 779.925L254.399 705.9V533.85L320.775 574.65L515.099 693.9L549.9 715.275L582.974 694.95L838.35 538.2L847.5 532.575Z"
        fill="#F45A21" />
</svg>