<svg width="512" height="512" viewBox="0 0 512 512" fill="none" xmlns="http://www.w3.org/2000/svg">
    <g clip-path="url(#clip0_1_2)">
        <rect width="512" height="512" rx="80" fill="#BD2B3C" />
        <g clip-path="url(#clip1_1_2)">
            <path
                d="M379.804 384C357.233 384 338.871 365.638 338.871 343.067V316.642C338.871 314.324 340.75 312.446 343.068 312.446C345.385 312.446 347.264 314.324 347.264 316.642V343.067C347.264 361.009 361.861 375.606 379.803 375.606C382.121 375.606 384 377.485 384 379.803C384 382.121 382.121 384 379.804 384Z"
                fill="#1B4145" />
            <path
                d="M253.901 365.126C315.329 365.126 365.126 315.329 365.126 253.901C365.126 192.474 315.329 142.677 253.901 142.677C192.474 142.677 142.677 192.474 142.677 253.901C142.677 315.329 192.474 365.126 253.901 365.126Z"
                fill="#00808A" />
            <path
                d="M253.901 325.957C293.696 325.957 325.957 293.696 325.957 253.901C325.957 214.107 293.696 181.846 253.901 181.846C214.107 181.846 181.846 214.107 181.846 253.901C181.846 293.696 214.107 325.957 253.901 325.957Z"
                fill="#E88250" />
            <path
                d="M253.901 128C184.368 128 128 184.368 128 253.901C128 323.435 184.368 379.803 253.901 379.803C323.435 379.803 379.803 323.435 379.803 253.901C379.803 184.368 323.435 128 253.901 128ZM154.517 221.61C160.104 204.416 178.571 195.007 195.765 200.593C212.958 206.179 222.368 224.647 216.782 241.841C211.195 259.035 192.728 268.444 175.534 262.858C158.34 257.271 148.931 238.804 154.517 221.61ZM238.202 331.201C227.576 345.827 207.105 349.069 192.479 338.443C177.853 327.817 174.611 307.345 185.237 292.719C195.864 278.093 216.335 274.851 230.961 285.477C245.587 296.104 248.829 316.575 238.202 331.201ZM221.167 182.137C221.167 164.058 235.822 149.403 253.901 149.403C271.98 149.403 286.636 164.058 286.636 182.137C286.636 200.216 271.98 214.872 253.901 214.872C235.822 214.872 221.167 200.216 221.167 182.137ZM315.324 338.442C300.698 349.068 280.227 345.826 269.601 331.2C258.975 316.574 262.217 296.104 276.843 285.477C291.469 274.851 311.94 278.093 322.566 292.719C333.193 307.345 329.95 327.816 315.324 338.442ZM332.268 262.858C315.075 268.444 296.607 259.035 291.021 241.841C285.434 224.647 294.844 206.18 312.038 200.593C329.231 195.007 347.699 204.416 353.285 221.61C358.872 238.804 349.462 257.271 332.268 262.858Z"
                fill="#3BB0BA" />
            <path
                d="M253.901 271.527C263.636 271.527 271.527 263.636 271.527 253.901C271.527 244.167 263.636 236.275 253.901 236.275C244.167 236.275 236.275 244.167 236.275 253.901C236.275 263.636 244.167 271.527 253.901 271.527Z"
                fill="#8B7E7F" />
        </g>
    </g>
    <defs>
        <clipPath id="clip0_1_2">
            <rect width="512" height="512" fill="white" />
        </clipPath>
        <clipPath id="clip1_1_2">
            <rect width="256" height="256" fill="white" transform="translate(128 128)" />
        </clipPath>
    </defs>
</svg>