<svg width="512" height="512" viewBox="0 0 512 512" fill="none" xmlns="http://www.w3.org/2000/svg">
    <g clip-path="url(#clip0_132_5)">
        <rect width="512" height="512" fill="#2A9D8F" />
        <rect width="512" height="512" fill="#2A9D8F" />
        <path
            d="M316 217.341V177.981H198.4V217.341C198.4 249.501 219.52 276.621 247.6 281.421C250.48 282.141 253.12 282.381 253.12 287.901C253.12 292.941 249.76 293.181 247.6 293.901C219.52 298.461 198.4 325.581 198.4 357.741V396.861H316V357.741C316 325.581 294.88 298.461 266.8 293.661C264.4 293.181 262 294.381 262 287.181C262 282.381 264.16 281.421 266.8 281.421C294.88 276.621 316 249.501 316 217.341Z"
            fill="#F2F3F4" />
        <path
            d="M272.08 334.461C260.08 323.901 261.28 289.101 260.56 288.621C262.96 282.141 268 280.221 282.16 276.381C299.44 271.581 308.08 250.941 308.08 250.941H205.84C207.04 261.741 237.52 279.981 244.72 281.181C248.8 281.901 251.44 285.501 252.88 288.861C252.88 296.061 248.32 331.101 241.84 334.701C235.12 338.301 199.6 349.581 199.6 349.581L199.12 384.381H314.32V349.581L272.08 334.461V334.461Z"
            fill="#F4A261" />
        <path
            d="M316 399.261H198.4C196.96 399.261 196 398.301 196 396.861V357.741C196 324.381 217.36 296.541 246.88 291.261C247.12 291.261 247.36 291.021 247.6 291.021C249.52 290.541 250.48 290.301 250.48 287.661C250.48 284.301 249.76 284.061 247.12 283.581C217.6 278.541 196 250.701 196 217.341V177.981C196 176.541 196.96 175.581 198.4 175.581H316C317.44 175.581 318.4 176.541 318.4 177.981V217.341C318.4 250.701 296.8 278.781 267.28 283.821C265.6 284.061 264.4 284.061 264.4 287.421C264.4 290.541 264.88 291.261 264.88 291.261H265.84C266.32 291.261 266.8 291.261 267.28 291.501C296.8 296.301 318.4 324.381 318.4 357.741V396.861C318.4 398.301 317.44 399.261 316 399.261ZM200.8 394.461H313.6V357.741C313.6 326.781 293.68 300.861 266.56 296.061H265.6C262 295.821 259.84 294.141 259.84 287.421C259.84 282.381 262.24 279.501 266.8 279.261C293.68 274.221 313.6 248.301 313.6 217.341V180.381H200.8V217.341C200.8 248.301 220.72 274.221 247.84 279.021H248.08C250.96 279.741 255.28 280.461 255.28 287.901C255.28 294.141 250.96 295.341 248.8 295.821C248.56 295.821 248.32 296.061 248.08 296.061H247.84C220.72 300.861 200.8 326.781 200.8 357.741V394.461Z"
            fill="#663210" />
        <path
            d="M328 181.341C328 186.621 323.68 190.941 318.4 190.941H196C190.72 190.941 186.4 186.621 186.4 181.341V175.341C186.4 170.061 190.72 165.741 196 165.741H318.4C323.68 165.741 328 170.061 328 175.341V181.341Z"
            fill="#AD5114" />
        <path
            d="M318.4 181.341H196C190.96 181.341 187.12 178.941 186.4 174.141V181.101C186.4 186.381 190.72 190.701 196 190.701H318.4C323.68 190.701 328 186.381 328 181.101V175.101V174.141C327.28 178.941 323.44 181.341 318.4 181.341Z"
            fill="#993F0D" />
        <path
            d="M328 393.741C328 388.461 323.68 384.141 318.4 384.141H196C190.72 384.141 186.4 388.461 186.4 393.741V399.741C186.4 405.021 190.72 409.341 196 409.341H318.4C323.68 409.341 328 405.021 328 399.741V393.741Z"
            fill="#AD5114" />
        <path
            d="M318.4 402.141H196C190.96 402.141 187.12 399.981 186.4 395.181V402.141C186.4 407.421 190.72 411.741 196 411.741H318.4C323.68 411.741 328 407.421 328 402.141V396.141V395.181C327.28 399.981 323.44 402.141 318.4 402.141Z"
            fill="#993F0D" />
        <path
            d="M318.4 193.341H196C189.28 193.341 184 188.061 184 181.341V174.141C184 167.421 189.28 162.141 196 162.141H318.4C325.12 162.141 330.4 167.421 330.4 174.141V181.341C330.4 188.061 325.12 193.341 318.4 193.341ZM196 166.941C191.92 166.941 188.8 170.061 188.8 174.141V181.341C188.8 185.421 191.92 188.541 196 188.541H318.4C322.48 188.541 325.6 185.421 325.6 181.341V174.141C325.6 170.061 322.48 166.941 318.4 166.941H196ZM318.4 411.741H196C189.28 411.741 184 406.461 184 399.741V394.941C184 388.221 189.28 382.941 196 382.941H318.4C325.12 382.941 330.4 388.221 330.4 394.941V399.741C330.4 406.461 325.12 411.741 318.4 411.741ZM196 387.741C191.92 387.741 188.8 390.861 188.8 394.941V399.741C188.8 403.821 191.92 406.941 196 406.941H318.4C322.48 406.941 325.6 403.821 325.6 399.741V394.941C325.6 390.861 322.48 387.741 318.4 387.741H196Z"
            fill="#663210" />
        <path
            d="M279.04 264.141C278.32 264.141 277.36 263.661 276.88 262.941C276.16 261.741 276.64 260.301 277.6 259.581C298.72 246.861 300.4 205.101 300.4 204.861C300.4 203.421 301.6 202.461 302.8 202.461C304.24 202.461 305.2 203.661 305.2 204.861C305.2 206.781 303.28 249.501 280 263.661C280 264.141 279.52 264.141 279.04 264.141V264.141ZM303.76 363.741C302.32 363.741 301.12 362.781 301.12 361.341C301.12 324.141 273.28 309.981 272.32 309.261C271.12 308.541 270.64 307.341 271.36 306.141C272.08 304.941 273.52 304.461 274.72 305.181C276.16 305.901 306.4 321.261 306.4 361.341C306.4 362.781 305.2 363.741 303.76 363.741V363.741ZM239.92 268.941C239.68 268.941 239.2 268.941 238.96 268.701C214.96 258.621 207.52 225.261 207.04 223.821C206.8 222.621 207.52 221.181 208.96 220.941C210.16 220.701 211.6 221.421 211.84 222.861C211.84 223.101 219.04 255.261 240.88 264.381C242.08 264.861 242.8 266.301 242.08 267.501C241.84 268.461 240.88 268.941 239.92 268.941V268.941Z"
            fill="white" />
        <path
            d="M311.92 176.541H208.72C207.28 176.541 206.32 175.581 206.32 174.141C206.32 172.701 207.28 171.741 208.72 171.741H311.92C313.36 171.741 314.32 172.701 314.32 174.141C314.32 175.581 313.12 176.541 311.92 176.541ZM315.04 397.341H259.12C257.68 397.341 256.72 396.381 256.72 394.941C256.72 393.501 257.68 392.541 259.12 392.541H315.04C316.48 392.541 317.44 393.501 317.44 394.941C317.44 396.381 316.48 397.341 315.04 397.341ZM239.92 397.341H217.6C216.16 397.341 215.2 396.381 215.2 394.941C215.2 393.501 216.16 392.541 217.6 392.541H239.92C241.36 392.541 242.32 393.501 242.32 394.941C242.32 396.381 241.12 397.341 239.92 397.341ZM160 243.261C154.72 243.261 150.4 238.941 150.4 233.661C150.4 228.381 154.72 224.061 160 224.061C165.28 224.061 169.6 228.381 169.6 233.661C169.6 238.941 165.28 243.261 160 243.261ZM160 228.381C157.12 228.381 154.96 230.781 154.96 233.421C154.96 236.301 157.36 238.461 160 238.461C162.88 238.461 165.04 236.061 165.04 233.421C165.04 230.781 162.88 228.381 160 228.381ZM354.4 274.701C349.12 274.701 344.8 270.381 344.8 265.101C344.8 259.821 349.12 255.501 354.4 255.501C359.68 255.501 364 259.821 364 265.101C364 270.621 359.68 274.701 354.4 274.701ZM354.4 260.301C351.52 260.301 349.36 262.461 349.36 265.341C349.36 268.221 351.52 270.381 354.4 270.381C357.28 270.381 359.44 268.221 359.44 265.341C359.44 262.461 357.28 260.301 354.4 260.301ZM163.6 306.861C163.6 305.901 162.64 304.941 161.2 304.701L156.64 303.981C155.44 303.741 154 302.541 154 301.341L153.28 296.781C153.04 295.581 152.08 294.381 151.12 294.381C150.16 294.381 149.2 295.341 148.96 296.781L148.24 301.341C148 302.541 146.8 303.981 145.6 303.981L141.04 304.701C139.84 304.941 138.64 305.901 138.64 306.861C138.64 307.821 139.6 308.781 141.04 309.021L145.6 309.741C146.8 309.981 148.24 311.181 148.24 312.381L148.96 316.941C149.2 318.141 150.16 319.341 151.12 319.341C152.08 319.341 153.04 318.381 153.04 316.941L153.76 311.901C154 310.701 155.2 309.501 156.4 309.261L160.72 309.021C162.64 308.781 163.6 307.821 163.6 306.861V306.861ZM366.88 202.941C366.88 201.981 365.92 201.021 364.48 200.781L359.92 200.061C358.72 199.821 357.28 198.621 357.28 197.421L356.56 192.861C356.32 191.661 355.36 190.461 354.4 190.461C353.44 190.461 352.48 191.421 352.24 192.861L351.52 197.421C351.28 198.621 350.08 200.061 348.88 200.061L344.32 200.781C343.12 201.021 341.92 201.981 341.92 202.941C341.92 203.901 342.88 204.861 344.32 205.101L348.88 205.821C350.08 206.061 351.52 207.261 351.52 208.461L352.24 213.021C352.48 214.221 353.44 215.421 354.4 215.421C355.36 215.421 356.32 214.461 356.32 213.021L357.04 207.981C357.28 206.781 358.48 205.581 359.68 205.341L364 205.101C365.68 204.621 366.88 203.901 366.88 202.941V202.941ZM239.68 135.021C239.68 134.061 238.72 133.101 237.28 132.861L232.72 132.141C231.52 131.901 230.08 130.701 230.08 129.501L229.36 124.941C229.12 123.741 228.16 122.541 227.2 122.541C226.24 122.541 225.28 123.501 225.04 124.941L224.32 129.501C224.08 130.701 222.88 132.141 221.68 132.141L217.12 132.861C215.92 133.101 214.72 134.061 214.72 135.021C214.72 135.981 215.68 136.941 217.12 137.181L221.68 137.901C222.88 138.141 224.32 139.341 224.32 140.541L225.04 145.101C225.28 146.301 226.24 147.501 227.2 147.501C228.16 147.501 229.12 146.541 229.12 145.101L229.84 140.061C230.08 138.861 231.28 137.661 232.48 137.421L236.8 137.181C238.48 136.701 239.68 135.981 239.68 135.021ZM362.08 327.741C362.08 326.781 361.12 325.821 359.68 325.581L355.12 324.861C353.92 324.621 352.48 323.421 352.48 322.221L351.76 317.661C351.52 316.461 350.56 315.261 349.6 315.261C348.64 315.261 347.68 316.221 347.44 317.661L346.72 322.221C346.48 323.421 345.28 324.861 344.08 324.861L339.52 325.581C338.32 325.821 337.12 326.781 337.12 327.741C337.12 328.701 338.08 329.661 339.52 329.901L344.08 330.621C345.28 330.861 346.72 332.061 346.72 333.261L347.44 337.821C347.68 339.021 348.64 340.221 349.6 340.221C350.56 340.221 351.52 339.261 351.52 337.821L352.24 332.781C352.48 331.581 353.68 330.381 354.88 330.141L359.2 329.901C360.88 329.421 362.08 328.701 362.08 327.741V327.741Z"
            fill="white" />
        <path
            d="M344.08 411.741H169.6C168.16 411.741 167.2 410.781 167.2 409.341C167.2 407.901 168.16 406.941 169.6 406.941H344.08C345.52 406.941 346.48 407.901 346.48 409.341C346.48 410.781 345.28 411.741 344.08 411.741Z"
            fill="#663210" />
    </g>
    <defs>
        <clipPath id="clip0_132_5">
            <rect width="512" height="512" rx="45" fill="white" />
        </clipPath>
    </defs>
</svg>
    