<svg width="256" height="256" viewBox="0 0 256 256" fill="none" xmlns="http://www.w3.org/2000/svg">
<path d="M186.913 163.644C184.804 163.644 182.743 163.02 180.99 161.848C179.236 160.677 177.869 159.013 177.062 157.065C176.255 155.117 176.043 152.973 176.454 150.905C176.865 148.837 177.88 146.937 179.371 145.446C180.862 143.955 182.761 142.939 184.829 142.528C186.897 142.116 189.04 142.327 190.989 143.133C192.937 143.94 194.602 145.306 195.774 147.059C196.945 148.812 197.571 150.873 197.571 152.981C197.568 155.807 196.444 158.517 194.446 160.516C192.448 162.515 189.739 163.64 186.913 163.644V163.644ZM69.0873 163.644C66.9788 163.644 64.9176 163.02 63.1642 161.848C61.4108 160.677 60.0441 159.013 59.2368 157.065C58.4295 155.117 58.218 152.973 58.629 150.905C59.0399 148.837 60.0549 146.937 61.5456 145.446C63.0362 143.955 64.9356 142.939 67.0035 142.528C69.0715 142.116 71.215 142.327 73.1632 143.133C75.1114 143.94 76.7766 145.306 77.9484 147.059C79.1201 148.812 79.7457 150.873 79.7461 152.981C79.7435 155.808 78.6198 158.518 76.6216 160.517C74.6233 162.516 71.9138 163.64 69.0873 163.644V163.644ZM190.735 99.432L212.039 62.534C212.33 62.03 212.52 61.4736 212.596 60.8965C212.672 60.3193 212.634 59.7328 212.484 59.1704C212.333 58.608 212.074 58.0807 211.72 57.6187C211.366 57.1566 210.924 56.7688 210.42 56.4774C209.916 56.1861 209.359 55.9968 208.782 55.9205C208.205 55.8442 207.619 55.8823 207.056 56.0326C206.494 56.183 205.967 56.4426 205.505 56.7968C205.042 57.1509 204.655 57.5926 204.363 58.0965L182.791 95.4606C166.294 87.9315 147.767 83.7391 127.998 83.7391C108.229 83.7391 89.7039 87.9376 73.2074 95.4606L51.6367 58.0965C51.3457 57.5924 50.9583 57.1505 50.4966 56.7961C50.0348 56.4417 49.5078 56.1818 48.9456 56.031C48.3834 55.8803 47.797 55.8418 47.2199 55.9177C46.6428 55.9936 46.0863 56.1824 45.5821 56.4734C45.078 56.7644 44.6361 57.1518 44.2817 57.6136C43.9273 58.0753 43.6674 58.6023 43.5166 59.1646C43.3659 59.7268 43.3274 60.3132 43.4033 60.8903C43.4792 61.4674 43.668 62.0239 43.959 62.528L65.2646 99.432C28.6819 119.329 3.66007 156.364 0 200.12H256C252.336 156.364 227.316 119.329 190.735 99.432" fill="#3DDC84"/>
</svg>
