<svg width="256" height="256" viewBox="0 0 256 256" fill="none" xmlns="http://www.w3.org/2000/svg">
<path d="M37.628 228.246L17.52 2.704H238.48L218.352 228.212L127.866 253.298L37.628 228.246V228.246Z" fill="#1572B6"/>
<path d="M128.002 234.124L201.12 213.852L218.322 21.144H128.002V234.124Z" fill="#33A9DC"/>
<path d="M128.002 102.858H164.606L167.134 74.532H128.002V46.87H197.366L196.702 54.292L189.902 130.52H128.002V102.858V102.858Z" fill="white"/>
<path d="M128.166 174.698L128.044 174.734L97.2379 166.416L95.2679 144.354H67.5039L71.3779 187.788L128.04 203.514L128.166 203.478V174.698V174.698Z" fill="#EBEBEB"/>
<path d="M162.254 129.35L158.922 166.394L128.07 174.722V203.502L184.778 187.786L185.194 183.112L190.006 129.35H162.254Z" fill="white"/>
<path d="M128.096 46.87V74.532H61.2802L60.7262 68.316L59.4662 54.292L58.8042 46.87H128.096V46.87ZM128.002 102.862V130.524H97.5842L97.0302 124.308L95.7682 110.284L95.1082 102.862H128.002V102.862Z" fill="#EBEBEB"/>
</svg>
