<svg width="256" height="256" viewBox="0 0 256 256" fill="none" xmlns="http://www.w3.org/2000/svg">
<g clip-path="url(#clip0_7_129)">
<path d="M128 128C128 116.684 132.495 105.832 140.497 97.8301C148.498 89.8286 159.351 85.3333 170.667 85.3333C181.983 85.3333 192.835 89.8286 200.837 97.8301C208.838 105.832 213.333 116.684 213.333 128C213.333 139.316 208.838 150.168 200.837 158.17C192.835 166.171 181.983 170.667 170.667 170.667C159.351 170.667 148.498 166.171 140.497 158.17C132.495 150.168 128 139.316 128 128V128Z" fill="#1ABCFE"/>
<path d="M42.6665 213.333C42.6665 202.017 47.1617 191.165 55.1633 183.163C63.1648 175.162 74.0173 170.667 85.3332 170.667H128V213.333C128 224.649 123.505 235.502 115.503 243.503C107.501 251.505 96.6491 256 85.3332 256C74.0173 256 63.1648 251.505 55.1633 243.503C47.1617 235.502 42.6665 224.649 42.6665 213.333H42.6665Z" fill="#0ACF83"/>
<path d="M128 0V85.3333H170.667C181.983 85.3333 192.835 80.8381 200.837 72.8366C208.838 64.835 213.333 53.9826 213.333 42.6667C213.333 31.3508 208.838 20.4983 200.837 12.4968C192.835 4.49522 181.983 0 170.667 0L128 0Z" fill="#FF7262"/>
<path d="M42.6665 42.6667C42.6665 53.9826 47.1617 64.835 55.1633 72.8366C63.1648 80.8381 74.0173 85.3333 85.3332 85.3333H128V0H85.3332C74.0173 0 63.1648 4.49522 55.1633 12.4968C47.1617 20.4983 42.6665 31.3508 42.6665 42.6667H42.6665Z" fill="#F24E1E"/>
<path d="M42.6665 128C42.6665 139.316 47.1617 150.168 55.1633 158.17C63.1648 166.171 74.0173 170.667 85.3332 170.667H128V85.3333H85.3332C74.0173 85.3333 63.1648 89.8286 55.1633 97.8301C47.1617 105.832 42.6665 116.684 42.6665 128H42.6665Z" fill="#A259FF"/>
</g>
<defs>
<clipPath id="clip0_7_129">
<rect width="170.667" height="256" fill="white" transform="translate(42.6665)"/>
</clipPath>
</defs>
</svg>
