<svg width="256" height="256" viewBox="0 0 256 256" fill="none" xmlns="http://www.w3.org/2000/svg">
<path d="M251.171 116.597L139.4 4.82891C132.965 -1.60964 122.526 -1.60964 116.084 4.82891L92.8771 28.0422L122.317 57.4824C129.159 55.17 137.004 56.7218 142.456 62.1769C147.942 67.6654 149.48 75.5778 147.109 82.4454L175.487 110.821C182.355 108.453 190.272 109.985 195.755 115.477C203.417 123.138 203.417 135.553 195.755 143.22C188.088 150.885 175.674 150.885 168.004 143.22C162.243 137.453 160.816 128.983 163.739 121.885L137.272 95.42V165.063C139.138 165.988 140.902 167.219 142.456 168.774C150.118 176.435 150.118 188.85 142.456 196.52C134.795 204.179 122.372 204.179 114.716 196.52C107.055 188.847 107.055 176.433 114.716 168.774C116.611 166.882 118.803 165.45 121.144 164.492V94.1997C118.803 93.2413 116.616 91.8232 114.716 89.9175C108.913 84.117 107.517 75.5973 110.493 68.4706L81.4713 39.4427L4.82881 116.079C-1.6096 122.523 -1.6096 132.962 4.82881 139.4L116.605 251.171C123.041 257.61 133.477 257.61 139.921 251.171L251.171 139.919C257.61 133.48 257.61 123.035 251.171 116.597Z" fill="#F05133"/>
</svg>
