<svg width="256" height="256" viewBox="0 0 256 256" fill="none" xmlns="http://www.w3.org/2000/svg">
<g clip-path="url(#clip0_7_92)">
<path d="M19.3196 108.96C18.821 108.96 18.6964 108.711 18.9457 108.337L21.5632 104.971C21.8125 104.597 22.4357 104.348 22.9342 104.348H67.4315C67.9301 104.348 68.0547 104.722 67.8055 105.096L65.6865 108.337C65.4373 108.711 64.814 109.084 64.4401 109.084L19.3196 108.96Z" fill="#00ACD7"/>
<path d="M0.49857 120.427C1.0401e-06 120.427 -0.124643 120.178 0.124642 119.804L2.74213 116.438C2.99141 116.064 3.61463 115.815 4.1132 115.815H60.9501C61.4486 115.815 61.6979 116.189 61.5733 116.563L60.5762 119.554C60.4515 120.053 59.9529 120.302 59.4544 120.302L0.49857 120.427Z" fill="#00ACD7"/>
<path d="M30.6619 131.894C30.1633 131.894 30.0387 131.52 30.288 131.146L32.033 128.03C32.2823 127.656 32.7808 127.282 33.2794 127.282H58.2079C58.7064 127.282 58.9557 127.656 58.9557 128.155L58.7064 131.146C58.7064 131.645 58.2078 132.019 57.8339 132.019L30.6619 131.894Z" fill="#00ACD7"/>
<path d="M160.041 106.716C152.189 108.711 146.829 110.206 139.101 112.2C137.231 112.699 137.107 112.824 135.486 110.954C133.617 108.835 132.246 107.464 129.628 106.218C121.776 102.354 114.173 103.476 107.068 108.087C98.5924 113.572 94.2299 121.673 94.3545 131.769C94.4792 141.741 101.335 149.967 111.181 151.338C119.657 152.46 126.762 149.469 132.37 143.112C133.492 141.741 134.489 140.245 135.736 138.5C131.249 138.5 125.64 138.5 111.68 138.5C109.062 138.5 108.439 136.88 109.312 134.761C110.932 130.897 113.923 124.415 115.668 121.175C116.042 120.427 116.915 119.18 118.784 119.18C125.141 119.18 148.574 119.18 164.154 119.18C163.905 122.546 163.905 125.911 163.406 129.276C162.035 138.251 158.67 146.477 153.186 153.706C144.211 165.547 132.495 172.901 117.663 174.896C105.448 176.516 94.1053 174.148 84.1339 166.669C74.9103 159.689 69.6754 150.466 68.3043 138.999C66.6839 125.413 70.6725 113.198 78.8989 102.478C87.7485 90.8867 99.4649 83.5328 113.799 80.9153C125.515 78.7964 136.733 80.1674 146.829 87.0228C153.435 91.3852 158.171 97.3681 161.287 104.597C162.035 105.719 161.537 106.342 160.041 106.716Z" fill="#00ACD7"/>
<path d="M201.297 175.643C189.955 175.394 179.61 172.153 170.885 164.675C163.531 158.318 158.919 150.216 157.423 140.619C155.18 126.534 159.044 114.07 167.519 102.977C176.618 91.0113 187.587 84.7792 202.419 82.1617C215.133 79.9181 227.098 81.1646 237.942 88.5185C247.789 95.2491 253.897 104.348 255.517 116.314C257.636 133.14 252.775 146.851 241.183 158.567C232.957 166.918 222.861 172.153 211.269 174.522C207.904 175.145 204.538 175.27 201.297 175.643ZM230.962 125.288C230.838 123.668 230.838 122.421 230.588 121.175C228.345 108.835 217.002 101.855 205.161 104.597C193.57 107.215 186.091 114.569 183.349 126.285C181.105 136.007 185.842 145.854 194.816 149.842C201.671 152.834 208.527 152.46 215.133 149.095C224.98 143.984 230.339 136.007 230.962 125.288Z" fill="#00ACD7"/>
</g>
<defs>
<clipPath id="clip0_7_92">
<rect width="256" height="256" fill="white"/>
</clipPath>
</defs>
</svg>
