<svg width="256" height="256" viewBox="0 0 256 256" fill="none" xmlns="http://www.w3.org/2000/svg">
<path d="M199 225C198.4 225 198 225 197.6 225C188.6 225 179.6 225 170.6 225C169.6 225 169 224.6 168.4 224C162 216 155 208.6 146.6 202.8C142.4 199.8 138 197.2 133 195.8C129 194.6 124.8 194 120.6 195C116.4 196 112.8 198.4 109.8 201.4C106 205.2 103.4 209.8 101.4 214.8C100.2 217.8 99.1998 220.8 98.1998 223.8C97.9998 224.2 97.9999 224.6 97.7999 225C90.1999 225 82.7998 225 74.9998 225C74.7998 223.8 74.5998 222.6 74.3998 221.2C73.5998 217.2 72.3998 213.2 70.3998 209.6C68.9998 206.8 67.1998 204.4 64.7998 202.4C62.1998 200.2 59.1998 199 55.7998 199C53.1998 199 50.9998 200 48.7998 201.4C45.7998 203.4 43.3998 206 41.5998 209C38.7998 213.4 37.1998 218.4 35.7998 223.4C35.5998 223.8 35.5998 224.4 35.3998 225C25.3998 225 15.5998 225 5.59984 225C5.39984 223.6 5.19984 222 4.99984 220.6C3.99984 211.2 3.39984 201.8 3.59984 192.4C3.79984 181.4 4.99984 170.6 7.59984 159.8C9.99984 150 13.3998 140.8 18.5998 132.4C25.7998 121 35.3998 112.8 47.9998 107.8C48.3998 107.6 48.5998 107.6 48.9998 107.4C48.9998 107.4 49.1998 107.4 49.3998 107.4C49.5998 107.8 49.7998 108.2 49.9998 108.6C53.5998 116.6 57.3998 124.4 61.9998 131.6C64.7998 136.2 68.7999 139.6 73.7999 141.2C79.1999 143 84.3998 142.4 89.5998 140.2C94.1998 138.2 97.9998 135.2 101.6 131.8C105.8 127.8 109.2 123.4 112.6 118.6C112.8 118.4 112.8 118.2 112.8 118C112.4 118.4 112 118.8 111.4 119.2C106.4 124.2 101 128.6 94.7999 132C91.7999 133.8 88.3998 135.2 84.9998 135.8C79.9998 136.8 75.3998 136.2 71.3998 132.6C69.7998 131.2 68.5998 129.6 67.3998 128C61.3998 118.6 56.1998 108.8 51.3998 98.8C50.3998 96.8 49.5998 94.8 49.3998 92.4C48.9998 89 49.9998 86 52.3998 83.4C54.1998 81.6 56.1998 80.2 58.5998 79C62.9998 76.8 67.5998 75.2 72.1998 73.6C78.9998 71.4 85.9998 69.8 93.1998 68.8C101.4 67.6 109.8 67.4 118.2 68.4C136.2 70.2 152.2 76.8 166.8 87.4C171.8 91 177 94 183 95.8C206.8 103.4 225.8 87 230.2 70.2C231.4 65.6 231.8 61 230 56.6C227.4 49.8 222.8 44.6 215.4 42.6C209.8 41.2 204.4 41.8 199.2 44.6C198.2 45.2 197.2 45.6 196.2 46C193.8 46.8 192.2 46.2 191 44C189.4 41.2 188.2 38.4 186.8 35.4C186.2 34.2 186.4 33.2 187 32.2C187.6 30.8 188.6 29.8 189.8 28.8C192.8 26.4 196.4 24.8 200.4 24C210.2 21.8 219.4 23.2 228.2 27.6C235.2 31 240.6 36.2 244.6 43C248.4 49.4 251 56.2 252.2 63.6C253 69.4 253 75 252.4 80.8C251.2 90.8 248.4 100.2 244.4 109.4C239.2 121.4 233.2 133 225.8 143.8C222.2 149 218.4 154 214.8 159C211 164.4 207.2 169.8 204.4 175.8C200.6 183.6 198.4 191.6 197.6 200.2C197 207.6 197.4 214.8 198.6 222.2C198.8 223.4 199 224.2 199 225ZM182.6 122.2C183.2 127 181.6 130.2 177.2 132C174 133.2 170 132.2 168 129.4C164.8 125.2 165.8 121.4 169.4 117.8C165.8 116.6 162.2 115.4 158.8 114.4C158 116.4 157.6 119.4 157.8 121.8C158.2 126.6 160 130.6 164 133.2C168.2 136 173 137.2 178 136.2C183.2 135.2 187.2 132.2 190 127.8C190.6 127 191 126.2 191 125C188.2 124.2 185.4 123.2 182.6 122.2Z" fill="#02303A"/>
</svg>
