<svg width="256" height="256" viewBox="0 0 256 256" fill="none" xmlns="http://www.w3.org/2000/svg">
<path d="M94.698 197.624C94.698 197.624 84.9327 203.303 101.648 205.224C121.897 207.535 132.247 207.203 154.562 202.98C154.562 202.98 160.429 206.658 168.622 209.845C118.597 231.285 55.406 208.603 94.698 197.624Z" fill="#5382A1"/>
<path d="M88.585 169.646C88.585 169.646 77.6323 177.754 94.3596 179.484C115.991 181.716 133.074 181.898 162.633 176.206C162.633 176.206 166.722 180.351 173.151 182.618C112.668 200.304 45.3003 184.013 88.585 169.646Z" fill="#5382A1"/>
<path d="M140.118 122.187C152.444 136.378 136.879 149.149 136.879 149.149C136.879 149.149 168.178 132.992 153.804 112.759C140.379 93.8911 130.084 84.5163 185.817 52.1932C185.817 52.1932 98.3347 74.0423 140.118 122.187Z" fill="#E76F00"/>
<path d="M206.28 218.318C206.28 218.318 213.506 224.272 198.321 228.879C169.446 237.626 78.14 240.267 52.7756 229.227C43.6577 225.261 60.7563 219.756 66.1349 218.601C71.7442 217.385 74.9497 217.611 74.9497 217.611C64.8097 210.468 9.40885 231.637 46.8088 237.7C148.804 254.24 232.736 230.251 206.28 218.318Z" fill="#5382A1"/>
<path d="M99.394 140.658C99.394 140.658 52.9499 151.689 82.947 155.695C95.6127 157.391 120.861 157.007 144.38 155.037C163.601 153.416 182.901 149.968 182.901 149.968C182.901 149.968 176.123 152.871 171.22 156.219C124.057 168.623 32.9461 162.852 59.1756 150.165C81.358 139.442 99.394 140.658 99.394 140.658Z" fill="#5382A1"/>
<path d="M182.709 187.228C230.653 162.315 208.486 138.374 193.013 141.599C189.221 142.388 187.53 143.072 187.53 143.072C187.53 143.072 188.938 140.867 191.627 139.912C222.236 129.151 245.777 171.651 181.746 188.484C181.746 188.485 182.487 187.821 182.709 187.228Z" fill="#5382A1"/>
<path d="M153.804 0C153.804 0 180.355 26.5609 128.62 67.4039C87.1339 100.167 119.16 118.848 128.603 140.191C104.387 118.342 86.6152 99.1085 98.5378 81.2075C116.037 54.9304 164.517 42.1903 153.804 0Z" fill="#E76F00"/>
<path d="M104.105 254.738C150.125 257.684 220.794 253.103 222.467 231.328C222.467 231.328 219.25 239.583 184.434 246.138C145.155 253.53 96.7105 252.667 67.9773 247.93C67.978 247.929 73.8593 252.798 104.105 254.738Z" fill="#5382A1"/>
</svg>
