<svg width="256" height="256" viewBox="0 0 256 256" fill="none" xmlns="http://www.w3.org/2000/svg">
<path d="M250.967 152.927C249.479 148.419 245.58 145.28 240.538 144.526C238.161 144.171 235.438 144.323 232.216 144.987C226.6 146.145 222.434 146.587 219.393 146.672C230.871 127.294 240.203 105.197 245.575 84.3964C254.263 50.762 249.621 35.4394 244.196 28.5087C229.839 10.1639 208.893 0.308846 183.623 0.00730079C170.143 -0.157531 158.309 2.50402 152.135 4.41801C146.387 3.40381 140.207 2.83756 133.722 2.73285C121.567 2.53893 110.826 5.18884 101.649 10.6351C96.5684 8.91695 88.4141 6.49489 78.9973 4.94935C56.8497 1.31335 38.9994 4.14652 25.9428 13.3703C10.1325 24.5382 2.80327 43.9418 4.15877 71.0421C4.58927 79.6463 9.40237 105.826 16.9808 130.653C21.3362 144.924 25.9806 156.774 30.7849 165.879C37.5983 178.789 44.8887 186.392 53.0731 189.122C57.6603 190.65 65.995 191.72 74.7611 184.419C75.8723 185.765 77.3548 187.102 79.3221 188.344C81.8208 189.92 84.876 191.208 87.9273 191.971C98.9236 194.719 109.224 194.032 118.011 190.179C118.065 191.742 118.107 193.235 118.142 194.525C118.2 196.616 118.258 198.667 118.335 200.585C118.856 213.552 119.738 223.635 122.352 230.69C122.495 231.077 122.688 231.669 122.892 232.296C124.196 236.289 126.377 242.973 131.925 248.208C137.67 253.631 144.619 255.294 150.983 255.294C154.175 255.294 157.221 254.875 159.892 254.303C169.413 252.262 180.227 249.154 188.05 238.015C195.446 227.485 199.041 211.625 199.692 186.636C199.776 185.929 199.854 185.254 199.929 184.611L200.084 183.291L201.826 183.444L202.275 183.474C211.973 183.916 223.831 181.86 231.114 178.477C236.868 175.806 255.309 166.071 250.967 152.927" fill="black"/>
<path d="M234.386 155.483C205.55 161.431 203.567 151.668 203.567 151.668C234.012 106.492 246.74 49.1466 235.758 35.1117C205.793 -3.17299 153.924 14.9333 153.059 15.4026L152.78 15.453C147.083 14.2701 140.708 13.5662 133.541 13.4489C120.495 13.2356 110.597 16.8696 103.086 22.565C103.086 22.565 10.5574 -15.5538 14.8615 70.5059C15.7768 88.8139 41.1027 209.036 71.3096 172.723C82.3505 159.444 93.019 148.217 93.019 148.217C98.3169 151.737 104.66 153.533 111.309 152.888L111.826 152.45C111.665 154.098 111.739 155.711 112.033 157.62C104.251 166.314 106.538 167.84 90.9818 171.043C75.2404 174.287 84.4875 180.062 90.5252 181.573C97.8447 183.402 114.778 185.995 126.219 169.978L125.763 171.806C128.812 174.248 130.953 187.691 130.594 199.878C130.235 212.064 129.996 220.43 132.397 226.965C134.801 233.501 137.195 248.205 157.646 243.823C174.733 240.161 183.588 230.671 184.821 214.842C185.694 203.588 187.673 205.252 187.797 195.191L189.385 190.428C191.214 175.173 189.675 170.252 200.202 172.541L202.762 172.766C210.509 173.118 220.651 171.519 226.604 168.753C239.42 162.805 247.021 152.873 234.384 155.483H234.386" fill="#336791"/>
<path d="M108.502 78.6932C105.904 78.3315 103.55 78.6661 102.36 79.5678C101.691 80.0749 101.483 80.6625 101.427 81.0668C101.278 82.1382 102.028 83.323 102.49 83.9339C103.795 85.6636 105.701 86.8524 107.588 87.1142C107.861 87.1529 108.134 87.1704 108.404 87.1704C111.551 87.1704 114.412 84.7202 114.664 82.9119C114.979 80.6469 111.691 79.1373 108.502 78.6942V78.6932ZM194.587 78.765C194.339 76.9896 191.18 76.4835 188.182 76.9004C185.188 77.3174 182.285 78.669 182.527 80.4482C182.721 81.8318 185.22 84.1937 188.177 84.1937C188.427 84.1937 188.679 84.1772 188.933 84.1414C190.908 83.8679 192.356 82.6143 193.045 81.8919C194.092 80.7904 194.699 79.5629 194.587 78.765" fill="white"/>
<path d="M243.981 154.807C242.881 151.482 239.342 150.413 233.463 151.627C216.005 155.23 209.753 152.734 207.7 151.222C221.27 130.55 232.433 105.562 238.455 82.2478C241.308 71.2041 242.883 60.9476 243.012 52.5878C243.155 43.4124 241.592 36.6698 238.369 32.551C225.374 15.9466 206.302 7.0398 183.216 6.79546C167.345 6.61706 153.935 10.6787 151.335 11.8209C145.861 10.4596 139.893 9.62379 133.396 9.51713C121.481 9.32418 111.182 12.1767 102.656 17.9914C98.9518 16.6127 89.3799 13.3267 77.674 11.4408C57.4365 8.18296 41.3547 10.6516 29.8785 18.7817C16.1848 28.4835 9.86301 45.8258 11.0876 70.3256C11.4997 78.5682 16.1964 103.925 23.6081 128.209C33.3642 160.171 43.9697 178.264 55.1278 181.987C56.4339 182.422 57.9397 182.727 59.6006 182.727C63.671 182.727 68.6615 180.892 73.8537 174.65C80.1867 167.053 86.7378 159.64 93.4988 152.421C97.8853 154.775 102.704 156.09 107.633 156.222C107.642 156.351 107.655 156.479 107.667 156.607C106.818 157.619 105.987 158.645 105.175 159.686C101.76 164.021 101.049 164.924 90.0567 167.187C86.9298 167.833 78.6251 169.544 78.503 175.365C78.3711 181.726 88.3202 184.397 89.4536 184.68C93.4038 185.669 97.2095 186.157 100.839 186.157C109.665 186.157 117.432 183.256 123.64 177.643C123.449 200.318 124.394 222.661 127.117 229.469C129.347 235.042 134.794 248.662 152.001 248.661C154.525 248.661 157.304 248.368 160.361 247.712C178.319 243.863 186.118 235.926 189.134 218.427C190.749 209.075 193.519 186.745 194.822 174.766C197.572 175.624 201.112 176.017 204.939 176.016C212.921 176.016 222.131 174.32 227.907 171.639C234.395 168.626 246.104 161.231 243.981 154.807V154.807ZM201.216 73.8647C201.156 77.4008 200.67 80.6111 200.154 83.9621C199.598 87.5661 199.024 91.2923 198.88 95.8154C198.737 100.217 199.287 104.794 199.818 109.22C200.893 118.16 201.995 127.363 197.728 136.445C197.019 135.189 196.388 133.891 195.837 132.557C195.307 131.272 194.155 129.207 192.56 126.348C186.356 115.221 171.826 89.164 179.264 78.5313C181.479 75.3666 187.102 72.1126 201.216 73.8647V73.8647ZM184.108 13.956C204.793 14.4126 221.156 22.151 232.741 36.9549C241.627 48.3099 231.842 99.977 203.517 144.55C203.233 144.188 202.946 143.827 202.658 143.467L202.3 143.019C209.619 130.931 208.188 118.971 206.914 108.368C206.39 104.016 205.896 99.9062 206.022 96.0452C206.152 91.9535 206.693 88.4436 207.216 85.05C207.859 80.8681 208.514 76.5408 208.333 71.4397C208.468 70.9045 208.523 70.2723 208.452 69.5218C207.991 64.6302 202.406 49.9902 191.023 36.7396C184.796 29.4919 175.716 21.3812 163.318 15.9107C168.651 14.8053 175.943 13.7746 184.108 13.956V13.956ZM68.359 170.081C62.6384 176.959 58.6882 175.641 57.3889 175.208C48.9243 172.385 39.1023 154.494 30.4428 126.123C22.9497 101.575 18.571 76.8898 18.2239 69.9678C17.1302 48.0762 22.4368 32.8195 33.9973 24.6206C52.8115 11.2789 83.7437 19.2645 96.173 23.3145C95.9946 23.491 95.8084 23.6558 95.6319 23.8352C75.2354 44.4334 75.7192 79.626 75.7697 81.7776C75.7677 82.6075 75.8375 83.7827 75.9326 85.399C76.2836 91.3184 76.9371 102.335 75.1918 114.811C73.5706 126.404 77.1446 137.752 84.9954 145.944C85.8011 146.783 86.648 147.582 87.5329 148.337C84.0384 152.079 76.4435 160.356 68.359 170.081V170.081ZM90.1547 141C83.827 134.397 80.9531 125.213 82.2689 115.8C84.1111 102.621 83.4314 91.1429 83.0659 84.9763C83.0145 84.1133 82.9689 83.3571 82.9428 82.7607C85.9223 80.1186 99.7304 72.7205 109.578 74.9768C114.071 76.0055 116.809 79.0656 117.947 84.3286C123.839 111.577 118.727 122.934 114.62 132.061C113.773 133.941 112.973 135.718 112.291 137.557L111.761 138.978C110.421 142.572 109.174 145.913 108.402 149.085C101.674 149.066 95.1306 146.192 90.1547 140.999V141ZM91.1873 177.748C89.2229 177.257 87.4563 176.405 86.4198 175.698C87.2856 175.291 88.8263 174.736 91.4985 174.185C104.43 171.524 106.427 169.645 110.789 164.107C111.788 162.837 112.922 161.398 114.492 159.645L114.494 159.643C116.831 157.025 117.901 157.469 119.84 158.274C121.412 158.924 122.943 160.894 123.563 163.062C123.857 164.086 124.187 166.029 123.107 167.542C113.997 180.298 100.721 180.134 91.1873 177.748V177.748ZM158.864 240.725C143.044 244.115 137.443 236.043 133.752 226.815C131.369 220.858 130.198 193.994 131.029 164.327C131.04 163.933 130.984 163.552 130.875 163.193C130.778 162.485 130.63 161.784 130.433 161.097C129.198 156.78 126.187 153.169 122.575 151.672C121.14 151.078 118.507 149.987 115.342 150.797C116.017 148.016 117.187 144.875 118.456 141.475L118.989 140.045C119.588 138.432 120.34 136.762 121.135 134.993C125.434 125.444 131.32 112.366 124.931 82.8189C122.538 71.7519 114.547 66.3474 102.433 67.603C95.1704 68.3544 88.5257 71.2846 85.2116 72.9649C84.499 73.3256 83.8474 73.6746 83.2385 74.014C84.1635 62.8636 87.6579 42.0249 100.73 28.8403C108.961 20.5405 119.922 16.441 133.278 16.6621C159.593 17.0926 176.468 30.5972 185.991 41.8514C194.198 51.5483 198.641 61.3171 200.415 66.5859C187.078 65.2294 178.007 67.8619 173.409 74.4358C163.406 88.7354 178.882 116.489 186.32 129.828C187.684 132.272 188.861 134.385 189.231 135.283C191.653 141.153 194.789 145.072 197.078 147.932C197.78 148.809 198.461 149.659 198.979 150.402C194.939 151.566 187.684 154.257 188.345 167.706C187.812 174.455 184.02 206.05 182.093 217.213C179.55 231.961 174.123 237.454 158.864 240.726V240.725ZM224.898 165.158C220.768 167.075 213.855 168.513 207.289 168.822C200.037 169.162 196.344 168.01 195.476 167.301C195.068 158.92 198.188 158.044 201.489 157.117C202.008 156.972 202.514 156.829 203.003 156.659C203.306 156.906 203.639 157.151 204.003 157.392C209.832 161.239 220.229 161.654 234.908 158.624L235.069 158.592C233.089 160.443 229.702 162.927 224.898 165.158Z" fill="white"/>
</svg>
