<svg width="256" height="256" viewBox="0 0 256 256" fill="none" xmlns="http://www.w3.org/2000/svg">
<path d="M128 150.8C140.592 150.8 150.8 140.592 150.8 128C150.8 115.408 140.592 105.2 128 105.2C115.408 105.2 105.2 115.408 105.2 128C105.2 140.592 115.408 150.8 128 150.8Z" fill="#61DAFB"/>
<path d="M214.6 90.4C210.2 88.8 205.6 87.2 200.8 85.8C202 81 203 76.2 203.8 71.6C208 45.2 203.4 26.6 190.6 19.4C186.8 17.2 182.6 16.2 177.8 16.2C163.8 16.2 146 26.6 128 44C110 26.6 92.1998 16.2 78.1998 16.2C73.3998 16.2 69.1998 17.2 65.3998 19.4C52.5998 26.8 47.9998 45.4 52.1998 71.6C52.9998 76.2 53.9998 81 55.1998 85.8C50.3998 87.2 45.7998 88.6 41.3998 90.4C16.3998 100 2.7998 113.2 2.7998 128C2.7998 142.8 16.5998 156 41.3998 165.6C45.7998 167.2 50.3998 168.8 55.1998 170.2C53.9998 175 52.9998 179.8 52.1998 184.4C47.9998 210.8 52.5998 229.4 65.3998 236.6C69.1998 238.8 73.3998 239.8 78.1998 239.8C92.3998 239.8 110.2 229.4 128 212C146 229.4 163.8 239.8 177.8 239.8C182.6 239.8 186.8 238.8 190.6 236.6C203.4 229.2 208 210.6 203.8 184.4C203 179.8 202 175 200.8 170.2C205.6 168.8 210.2 167.4 214.6 165.6C239.6 156 253.2 142.8 253.2 128C253.2 113.2 239.6 100 214.6 90.4ZM185 29.4C193.2 34.2 196 49 192.6 70C192 74.2 191 78.6 189.8 83.2C179.4 80.8 168.4 79.2 156.8 78.2C150 68.6 143 60 136 52.2C150.8 37.6 165.8 27.6 178 27.6C180.6 27.6 183 28.2 185 29.4V29.4ZM162.6 148C159 154.4 154.8 160.8 150.4 167.2C143 167.8 135.6 168 128 168C120.2 168 112.8 167.8 105.6 167.2C101.2 160.8 97.1998 154.4 93.5998 148C89.7998 141.4 86.1998 134.6 82.9998 128C86.1998 121.4 89.7998 114.6 93.5998 108C97.1998 101.6 101.4 95.2 105.8 88.8C113.2 88.2 120.6 88 128.2 88C136 88 143.4 88.2 150.6 88.8C155 95.2 159 101.6 162.6 108C166.4 114.6 170 121.4 173.2 128C169.8 134.6 166.4 141.2 162.6 148ZM179.2 141.4C182.2 148.4 184.6 155.2 186.8 162C180 163.6 172.8 164.8 165.2 165.8C167.6 162 170.2 158 172.4 153.8C174.8 149.6 177 145.4 179.2 141.4ZM128 195.6C123.2 190.4 118.6 184.8 114.2 179C118.8 179.2 123.4 179.4 128 179.4C132.6 179.4 137.2 179.2 141.8 179C137.4 184.8 132.8 190.4 128 195.6ZM90.7998 165.6C83.1998 164.6 75.9998 163.4 69.1998 161.8C71.3998 155.2 73.7998 148.2 76.7998 141.2C78.9998 145.2 81.1998 149.4 83.5998 153.4C85.9998 157.8 88.3998 161.6 90.7998 165.6V165.6ZM76.7998 114.6C73.7998 107.6 71.3998 100.8 69.1998 94C75.9998 92.4 83.1998 91.2 90.7998 90.2C88.3998 94 85.7998 98 83.5998 102.2C81.1998 106.4 78.9998 110.6 76.7998 114.6V114.6ZM128 60.4C132.8 65.6 137.4 71.2 141.8 77C137.2 76.8 132.6 76.6 128 76.6C123.4 76.6 118.8 76.8 114.2 77C118.6 71.2 123.2 65.6 128 60.4V60.4ZM172.4 102.4L165.2 90.4C172.8 91.4 180 92.6 186.8 94.2C184.6 100.8 182.2 107.8 179.2 114.8C177 110.6 174.8 106.4 172.4 102.4V102.4ZM63.3998 70C59.9998 49 62.7998 34.2 70.9998 29.4C72.9998 28.2 75.3998 27.6 77.9998 27.6C89.9998 27.6 105 37.4 120 52.2C113 59.8 106 68.6 99.1998 78.2C87.5998 79.2 76.5998 81 66.1998 83.2C64.9998 78.6 64.1998 74.2 63.3998 70ZM13.9998 128C13.9998 118.6 25.3998 108.6 45.3998 101.2C49.3998 99.6 53.7998 98.2 58.1998 97C61.3998 107 65.3998 117.6 70.1998 128.2C65.3998 138.8 61.1998 149.2 58.1998 159.2C30.5998 151.2 13.9998 139.2 13.9998 128V128ZM70.9998 226.6C62.7998 221.8 59.9998 207 63.3998 186C63.9998 181.8 64.9998 177.4 66.1998 172.8C76.5998 175.2 87.5998 176.8 99.1998 177.8C106 187.4 113 196 120 203.8C105.2 218.4 90.1998 228.4 77.9998 228.4C75.3998 228.4 72.9998 227.8 70.9998 226.6ZM192.6 186C196 207 193.2 221.8 185 226.6C183 227.8 180.6 228.4 178 228.4C166 228.4 151 218.6 136 203.8C143 196.2 150 187.4 156.8 177.8C168.4 176.8 179.4 175 189.8 172.8C191 177.4 191.8 181.8 192.6 186V186ZM210.6 154.8C206.6 156.4 202.2 157.8 197.8 159C194.6 149 190.6 138.4 185.8 127.8C190.6 117.2 194.8 106.8 197.8 96.8C225.4 104.8 242 116.8 242 128C242 137.4 230.4 147.4 210.6 154.8V154.8Z" fill="#61DAFB"/>
</svg>
