<svg width="256" height="256" viewBox="0 0 256 256" fill="none" xmlns="http://www.w3.org/2000/svg">
<g clip-path="url(#clip0_7_130)">
<path d="M256 70.9368C256 68.2827 256 65.87 256 63.2159C255.759 57.6664 255.517 51.8756 254.552 46.3261C253.587 40.7767 251.898 35.4684 249.244 30.4015C246.59 25.3346 243.453 20.7502 239.351 16.8897C235.25 12.7879 230.665 9.65126 225.84 6.99716C220.773 4.34306 215.465 2.65413 209.915 1.689C204.366 0.723873 198.816 0.241295 193.025 0.241295C190.371 0.241295 187.958 0.241295 185.304 0.241295C182.168 0.241295 179.272 0.241295 176.136 0.241295H108.335H80.3467C77.2101 0.241295 74.3147 0.241295 71.178 0.241295C68.5239 0.241295 66.1111 0.241295 63.457 0.241295C62.0093 0.241295 60.5616 0.24131 59.3552 0.482591C55.2534 0.723873 50.9103 0.965155 46.8085 1.689C42.7067 2.41285 38.6049 3.61924 34.7444 5.06693C33.538 5.54949 32.0904 6.27337 30.8839 6.75593C27.0234 8.68619 23.6455 11.099 20.2675 13.7531C19.3024 14.7182 18.096 15.6833 17.1309 16.6484C13.0291 20.7502 9.89242 25.3346 7.23832 30.1602C4.58422 35.2271 2.89525 40.5354 1.93013 46.0848C0.965 51.6343 0.723704 57.1838 0.482422 62.9746C0.482422 65.6287 0.482422 68.0415 0.482422 70.6956C0.482422 73.8323 0.482422 76.7276 0.482422 79.8643V121.606V175.653C0.482422 178.79 0.482422 181.685 0.482422 184.822C0.482422 187.476 0.482422 189.889 0.482422 192.543C0.723704 198.092 0.965 203.883 1.93013 209.433C2.89525 214.982 4.58422 220.29 7.23832 225.357C9.89242 230.424 13.0291 235.008 17.1309 238.869C21.2327 242.971 25.817 246.107 30.6426 248.762C35.7096 251.416 41.0178 253.105 46.5673 254.07C52.1167 255.035 57.6662 255.517 63.457 255.517C66.1111 255.517 68.5239 255.517 71.178 255.517C74.3147 255.517 77.2101 255.517 80.3467 255.517H176.136C179.272 255.517 182.168 255.517 185.304 255.517C187.958 255.517 190.371 255.517 193.025 255.517C198.575 255.276 204.366 255.035 209.915 254.07C215.465 253.105 220.773 251.416 225.84 248.762C230.907 246.107 235.491 242.971 239.351 238.869C243.453 234.767 246.59 230.183 249.244 225.357C251.898 220.29 253.587 214.982 254.552 209.433C255.517 203.883 256 198.334 256 192.543C256 189.889 256 187.476 256 184.822C256 181.685 256 178.79 256 175.653V79.8643C256 76.9689 256 74.0735 256 70.9368Z" fill="#F05138"/>
<path d="M202.677 158.04C202.918 157.074 203.159 156.109 203.4 155.144C214.017 112.92 188.2 62.7333 144.286 36.4336C163.589 62.492 172.034 94.0999 164.554 121.606C163.83 124.019 163.106 126.432 162.141 128.844C161.176 128.121 159.97 127.397 158.281 126.673C158.281 126.673 114.609 99.6494 67.3175 52.1169C66.1111 50.9105 92.6521 89.9981 122.571 121.606C108.335 113.644 69.0065 84.9312 43.9132 62.2507C47.0498 67.3177 50.6691 72.3845 54.5296 76.9689C75.2798 103.51 102.545 136.083 135.118 161.176C112.196 175.171 79.8642 176.377 47.7737 161.176C39.8114 157.557 32.3316 152.973 25.3345 147.906C38.8463 169.621 59.8378 188.441 85.4136 199.54C115.815 212.569 146.217 211.845 168.656 199.781C168.656 199.781 168.897 199.781 168.897 199.54C169.862 199.058 170.827 198.334 171.793 197.851C182.65 192.302 203.883 186.752 215.465 208.95C218.842 214.017 224.875 185.063 202.677 158.04Z" fill="white"/>
</g>
<defs>
<clipPath id="clip0_7_130">
<rect width="256" height="256" fill="white"/>
</clipPath>
</defs>
</svg>
